<svg xmlns="http://www.w3.org/2000/svg" width="1200" height="500" viewBox="0 0 1200 500" role="img" aria-label="Featured projects"><defs><linearGradient id="a" x1="0" y1="0" x2="1" y2="0"><stop offset="0" stop-color="#C4B5FD"><animate attributeName="stop-color" values="#C4B5FD;#67E8F9;#4ADE80;#C4B5FD" dur="12s" repeatCount="indefinite"/></stop><stop offset="1" stop-color="#67E8F9"><animate attributeName="stop-color" values="#67E8F9;#4ADE80;#C4B5FD;#67E8F9" dur="12s" repeatCount="indefinite"/></stop></linearGradient></defs><rect width="1200" height="500" rx="22" fill="#070B12"/><rect x="20" y="20" width="1160" height="460" rx="20" fill="#0D1117" stroke="#26344D" stroke-width="2"/><rect x="20" y="20" width="1160" height="48" fill="#080E19"/><circle cx="46" cy="44" r="6" fill="#FF5F56"/><circle cx="67" cy="44" r="6" fill="#FFBD2E"/><circle cx="88" cy="44" r="6" fill="#27C93F"/><text x="600" y="49" text-anchor="middle" fill="#718096" font-size="13" font-family="ui-monospace,SFMono-Regular,Menlo,Consolas,monospace">jyc8369@github: ~/profile $ ls featured-projects</text><rect x="20" y="67" width="1160" height="2" fill="url(#a)"/><g font-family="ui-monospace,SFMono-Regular,Menlo,Consolas,monospace"><text x="64" y="112" fill="#718096" font-size="12" letter-spacing="2.4">FEATURED PROJECTS</text><text x="64" y="152" fill="#F2F6FF" font-size="32" font-weight="700">Projects I use to explore practical workflows</text><text x="64" y="180" fill="#AAB6CC" font-size="14">Small tools, extensions, and experiments built around problems I actually wanted to solve.</text><g transform="translate(64 218)"><rect width="526" height="112" rx="16" fill="#101723" stroke="#26344D"/><rect x="18" y="18" width="8" height="76" rx="4" fill="#C4B5FD"/><text x="44" y="33" fill="#C4B5FD" font-size="15" font-weight="700">Minecraft Mod Translator Gemini</text><text x="44" y="57" fill="#D8E1F0" font-size="12">Translates mod language files with Gemini and rebuilds</text><text x="44" y="76" fill="#D8E1F0" font-size="12">a translated copy of the mod package.</text><text x="44" y="98" fill="#718096" font-size="11.5">Python · Gemini API · automation</text></g><g transform="translate(610 218)"><rect width="526" height="112" rx="16" fill="#101723" stroke="#26344D"/><rect x="18" y="18" width="8" height="76" rx="4" fill="#67E8F9"/><text x="44" y="33" fill="#67E8F9" font-size="15" font-weight="700">Codex Multi Login</text><text x="44" y="57" fill="#D8E1F0" font-size="12">A VS Code extension for managing multiple Codex accounts</text><text x="44" y="76" fill="#D8E1F0" font-size="12">and switching between them more easily.</text><text x="44" y="98" fill="#718096" font-size="11.5">TypeScript · VS Code · developer tooling</text></g><g transform="translate(64 350)"><rect width="526" height="104" rx="16" fill="#101723" stroke="#26344D"/><rect x="18" y="18" width="8" height="68" rx="4" fill="#4ADE80"/><text x="44" y="33" fill="#4ADE80" font-size="15" font-weight="700">Icon Bundler</text><text x="44" y="57" fill="#D8E1F0" font-size="12">Converts images into Windows ICO and macOS ICNS files.</text><text x="44" y="82" fill="#718096" font-size="11.5">Python · desktop utility · packaging</text></g><g transform="translate(610 350)"><rect width="526" height="104" rx="16" fill="#101723" stroke="#26344D"/><rect x="18" y="18" width="8" height="68" rx="4" fill="#F9A8D4"/><text x="44" y="33" fill="#F9A8D4" font-size="15" font-weight="700">Cost Aware Agent Router</text><text x="44" y="57" fill="#D8E1F0" font-size="12">Routes reasoning-heavy work to stronger available agents.</text><text x="44" y="82" fill="#718096" font-size="11.5">Codex plugin · agent routing · local execution</text></g></g></svg>