<svg xmlns="http://www.w3.org/2000/svg" width="1200" height="420" viewBox="0 0 1200 420" role="img" aria-label="Programming languages and current direction"><defs><linearGradient id="a" x1="0" y1="0" x2="1" y2="0"><stop offset="0" stop-color="#C4B5FD"><animate attributeName="stop-color" values="#C4B5FD;#67E8F9;#4ADE80;#C4B5FD" dur="12s" repeatCount="indefinite"/></stop><stop offset="1" stop-color="#67E8F9"><animate attributeName="stop-color" values="#67E8F9;#4ADE80;#C4B5FD;#67E8F9" dur="12s" repeatCount="indefinite"/></stop></linearGradient></defs><rect width="1200" height="420" rx="30" fill="#070B12"/><rect x="20" y="20" width="1160" height="380" rx="24" fill="#0D1117" stroke="#26344D" stroke-width="2"/><path d="M44 20H1156Q1180 20 1180 44V68H20V44Q20 20 44 20Z" fill="#080E19"/><circle cx="46" cy="44" r="6" fill="#FF5F56"/><circle cx="67" cy="44" r="6" fill="#FFBD2E"/><circle cx="88" cy="44" r="6" fill="#27C93F"/><text x="600" y="49" text-anchor="middle" fill="#718096" font-size="13" font-family="ui-monospace,SFMono-Regular,Menlo,Consolas,monospace">jyc8369@github: ~/profile $ cat stack.txt</text><rect x="20" y="67" width="1160" height="2" fill="url(#a)"/><g font-family="ui-monospace,SFMono-Regular,Menlo,Consolas,monospace"><text x="64" y="112" fill="#718096" font-size="12" letter-spacing="2.4">LANGUAGES AND DIRECTION</text><text x="64" y="152" fill="#F2F6FF" font-size="32" font-weight="700">Tools I use now, and the direction I am growing toward</text><g transform="translate(64 196)"><rect width="532" height="164" rx="16" fill="#101723" stroke="#26344D"/><text x="22" y="32" fill="#C4B5FD" font-size="15" font-weight="700">Programming languages</text><text x="22" y="62" fill="#F2F6FF" font-size="13">Python</text><rect x="150" y="51" width="330" height="10" rx="5" fill="#1C2636"/><rect x="150" y="51" width="290" height="10" rx="5" fill="#C4B5FD" opacity="0.8"/><text x="22" y="88" fill="#F2F6FF" font-size="13">TypeScript</text><rect x="150" y="77" width="330" height="10" rx="5" fill="#1C2636"/><rect x="150" y="77" width="245" height="10" rx="5" fill="#67E8F9" opacity="0.8"/><text x="22" y="114" fill="#F2F6FF" font-size="13">JavaScript / Shell</text><rect x="150" y="103" width="330" height="10" rx="5" fill="#1C2636"/><rect x="150" y="103" width="190" height="10" rx="5" fill="#4ADE80" opacity="0.8"/><text x="22" y="140" fill="#F2F6FF" font-size="13">HTML / CSS</text><rect x="150" y="129" width="330" height="10" rx="5" fill="#1C2636"/><rect x="150" y="129" width="160" height="10" rx="5" fill="#F9A8D4" opacity="0.8"/></g><g transform="translate(624 196)"><rect width="512" height="164" rx="16" fill="#101723" stroke="#26344D"/><text x="22" y="32" fill="#67E8F9" font-size="15" font-weight="700">Current direction</text><text x="22" y="62" fill="#F2F6FF" font-size="15" font-weight="700">DevOps · Systems Engineering</text><text x="22" y="90" fill="#AAB6CC" font-size="12">Linux · CI/CD · Containers · Networking</text><text x="22" y="113" fill="#AAB6CC" font-size="12">Observability · Infrastructure · Reliability</text><path d="M22 132 H470" stroke="#26344D"/><text x="22" y="151" fill="#718096" font-size="11.5">Goal: understand how software is built, deployed, operated, observed, and recovered.</text></g><text x="64" y="388" fill="#718096" font-size="12">I am learning these technologies through projects, deployment, and operating small services.</text></g></svg>